HIERARCHY
ROOT Hips
{
	OFFSET 0.000000 0.000000 0.000000
	CHANNELS 6 Xposition Yposition Zposition Xrotation Yrotation Zrotation
	JOINT LeftUpLeg_virtual
	{
		OFFSET 0.000000 0.000000 0.000000
		CHANNELS 3 Xrotation Yrotation Zrotation
		JOINT LeftUpLeg
		{
			OFFSET 11.394100 -6.187798 -0.413800
			CHANNELS 3 Xrotation Yrotation Zrotation
			JOINT LeftLeg
			{
				OFFSET 0.430247 -32.302673 3.732800
				CHANNELS 3 Xrotation Yrotation Zrotation
				JOINT LeftFoot
				{
					OFFSET -0.430247 -48.264931 -6.423300
					CHANNELS 3 Xrotation Yrotation Zrotation
					JOINT LeftToeBase
					{
						OFFSET 4.230900 -16.068199 23.438400
						CHANNELS 3 Xrotation Yrotation Zrotation
						JOINT LeftToe_End
						{
							OFFSET 4.510700 0.695400 19.974600
							CHANNELS 3 Xrotation Yrotation Zrotation
							End Site
							{
								OFFSET 0 0 0
							}
						}
					}
				}
			}
		}
	}
	JOINT RightUpLeg_virtual
	{
		OFFSET 0.000000 0.000000 0.000000
		CHANNELS 3 Xrotation Yrotation Zrotation
		JOINT RightUpLeg
		{
			OFFSET -11.333700 -6.187798 -0.413800
			CHANNELS 3 Xrotation Yrotation Zrotation
			JOINT RightLeg
			{
				OFFSET -0.430392 -32.302628 3.733000
				CHANNELS 3 Xrotation Yrotation Zrotation
				JOINT RightFoot
				{
					OFFSET 0.430392 -48.264973 -6.423500
					CHANNELS 3 Xrotation Yrotation Zrotation
					JOINT RightToeBase
					{
						OFFSET -4.230900 -16.068199 23.438400
						CHANNELS 3 Xrotation Yrotation Zrotation
						JOINT RightToe_End
						{
							OFFSET -4.510700 0.695400 19.974600
							CHANNELS 3 Xrotation Yrotation Zrotation
							End Site
							{
								OFFSET 0 0 0
							}
						}
					}
				}
			}
		}
	}
	JOINT Spine_virtual
	{
		OFFSET 0.000000 0.000000 0.000000
		CHANNELS 3 Xrotation Yrotation Zrotation
		JOINT Spine
		{
			OFFSET -0.002400 12.777504 0.315300
			CHANNELS 3 Xrotation Yrotation Zrotation
			JOINT Spine1
			{
				OFFSET -0.002067 5.816869 0.032633
				CHANNELS 3 Xrotation Yrotation Zrotation
				JOINT Spine1_split
				{
					OFFSET -0.002067 5.816869 0.032633
					CHANNELS 3 Xrotation Yrotation Zrotation
					JOINT Spine2
					{
						OFFSET -0.002067 5.816869 0.032633
						CHANNELS 3 Xrotation Yrotation Zrotation
						JOINT Neck_virtual
						{
							OFFSET 0.000000 0.000000 0.000000
							CHANNELS 3 Xrotation Yrotation Zrotation
							JOINT Neck
							{
								OFFSET -0.003700 21.199493 -0.826900
								CHANNELS 3 Xrotation Yrotation Zrotation
								JOINT Head
								{
									OFFSET 0.000000 20.442200 4.834800
									CHANNELS 3 Xrotation Yrotation Zrotation
									JOINT HeadTop_End
									{
										OFFSET 0.000000 34.668396 4.968400
										CHANNELS 3 Xrotation Yrotation Zrotation
										End Site
										{
											OFFSET 0 0 0
										}
									}
								}
							}
						}
						JOINT LeftShoulder_virtual
						{
							OFFSET 0.000000 0.000000 0.000000
							CHANNELS 3 Xrotation Yrotation Zrotation
							JOINT LeftShoulder
							{
								OFFSET 3.288150 8.794197 -1.372250
								CHANNELS 3 Xrotation Yrotation Zrotation
								JOINT LeftShoulder_split
								{
									OFFSET 3.288150 8.794197 -1.372250
									CHANNELS 3 Xrotation Yrotation Zrotation
									JOINT LeftArm
									{
										OFFSET 11.953299 -2.279007 -0.146200
										CHANNELS 3 Xrotation Yrotation Zrotation
										JOINT LeftForeArm
										{
											OFFSET 18.448900 0.000000 0.000000
											CHANNELS 3 Xrotation Yrotation Zrotation
											JOINT LeftHand
											{
												OFFSET 29.527798 0.000000 0.000000
												CHANNELS 3 Xrotation Yrotation Zrotation
												End Site
												{
													OFFSET 0 0 0
												}
											}
										}
									}
								}
							}
						}
						JOINT RightShoulder_virtual
						{
							OFFSET 0.000000 0.000000 0.000000
							CHANNELS 3 Xrotation Yrotation Zrotation
							JOINT RightShoulder
							{
								OFFSET -3.249400 8.794197 -1.372250
								CHANNELS 3 Xrotation Yrotation Zrotation
								JOINT RightShoulder_split
								{
									OFFSET -3.249400 8.794197 -1.372250
									CHANNELS 3 Xrotation Yrotation Zrotation
									JOINT RightArm
									{
										OFFSET -11.953299 -2.279007 -0.146200
										CHANNELS 3 Xrotation Yrotation Zrotation
										JOINT RightForeArm
										{
											OFFSET -18.448900 0.000000 0.000000
											CHANNELS 3 Xrotation Yrotation Zrotation
											JOINT RightHand
											{
												OFFSET -29.527802 0.000000 0.000000
												CHANNELS 3 Xrotation Yrotation Zrotation
												End Site
												{
													OFFSET 0 0 0
												}
											}
										}
									}
								}
							}
						}
					}
				}
			}
		}
	}
}
MOTION
Frames: 4
Frame Time: 0.03333333
0.788215 78.269524 1.131481 0.000000 0.000000 0.000000 7.135966 -55.934554 8.622919 -72.505566 21.229264 46.000952 53.533052 -18.346014 3.295639 8.358827 0.875129 -11.018168 -0.284043 -6.609948 1.671295 0.000000 0.000000 0.000000 6.139597 -56.359743 9.095941 -34.348926 3.087006 -29.799344 48.744557 8.609535 -7.053852 -21.009945 -5.609478 29.384427 6.021016 4.053917 3.687368 0.000000 0.000000 0.000000 9.713617 -50.226588 10.597461 13.109191 3.389192 -2.794311 3.081172 6.602243 -4.286578 0.235349 -4.384366 1.360289 0.000000 0.000000 0.000000 -3.771142 5.807277 -3.208499 -0.874297 10.767844 0.061644 -2.478151 26.071761 -4.645561 0.000000 0.000000 0.000000 -4.682433 5.509308 -3.408780 -0.710323 -7.759300 -2.683153 -0.112485 -3.370110 3.166903 -10.139429 5.932800 -45.131336 -20.860847 -28.458436 -17.010368 0.000000 0.000000 0.000000 -5.043798 5.491061 -2.804423 -2.258207 21.640814 1.085491 -5.338067 -2.242473 3.065978 3.627464 -29.535876 59.415303 -19.750706 38.774236 19.376321 0.000000 0.000000 0.000000 
0.504969 78.183487 0.934830 0.000000 0.000000 0.000000 6.897746 -55.930206 8.747969 -72.657223 21.399587 46.255349 53.571407 -18.716998 3.308831 8.893251 0.729466 -11.185769 0.343904 -6.548661 1.342135 0.000000 0.000000 0.000000 5.997045 -56.339987 9.203365 -34.538843 2.798633 -30.040664 48.542117 8.325726 -6.951895 -20.925620 -5.601441 29.038546 5.903438 4.076831 3.671884 0.000000 0.000000 0.000000 9.121419 -50.178661 10.178667 13.263233 3.186364 -3.026211 3.076819 6.579057 -4.297240 -0.183226 -4.013173 1.015665 0.000000 0.000000 0.000000 -3.875586 5.849108 -3.201139 -1.002820 11.083410 -0.100360 -2.351715 26.145189 -4.464488 0.000000 0.000000 0.000000 -4.719727 5.506718 -3.383016 -0.591483 -7.929782 -2.106539 -0.533274 -2.690157 2.301545 -10.812528 5.960253 -45.189908 -21.347024 -29.419763 -17.571990 0.000000 0.000000 0.000000 -4.922806 5.479354 -2.735269 -2.276841 21.273314 1.215757 -6.220845 -1.600519 3.164015 5.501347 -29.742868 60.025198 -19.768244 39.079095 19.443781 0.000000 0.000000 0.000000 
0.178165 78.214745 0.787132 0.000000 0.000000 0.000000 6.488381 -55.973281 8.574902 -72.609535 21.418107 46.606984 53.256173 -18.941107 3.333210 9.236741 0.658333 -11.378696 0.919977 -6.453426 0.649339 0.000000 0.000000 0.000000 5.576741 -56.470833 8.966413 -34.614623 2.394314 -29.998720 48.443434 7.975396 -6.846839 -21.020013 -5.664535 28.376682 5.542670 4.042992 3.546274 0.000000 0.000000 0.000000 8.462376 -50.398514 9.595253 13.413246 2.964000 -3.310678 3.078055 6.636833 -4.269798 -0.422166 -3.616839 0.959040 0.000000 0.000000 0.000000 -3.940575 5.995648 -3.149152 -0.829382 11.463468 -0.340847 -1.925345 25.569812 -4.227543 0.000000 0.000000 0.000000 -4.773774 5.607233 -3.218601 -0.464827 -8.203599 -1.569342 -0.558840 -1.969993 1.189193 -11.253981 6.258271 -44.763274 -22.318314 -31.410343 -18.888758 0.000000 0.000000 0.000000 -4.798942 5.568444 -2.635682 -2.100219 20.752753 1.091666 -6.662590 -0.965429 3.096203 7.902769 -30.555927 61.321152 -20.335322 41.171414 19.927147 0.000000 0.000000 0.000000 
-0.027996 78.413872 0.649891 0.000000 0.000000 0.000000 6.032233 -56.314893 8.189266 -72.099504 21.239747 46.803820 52.488057 -19.074662 3.380209 9.410173 0.663961 -11.794841 0.739270 -6.329648 -0.076106 0.000000 0.000000 0.000000 5.078765 -56.717747 8.542217 -34.894443 2.008722 -29.674522 48.395729 7.721420 -6.757947 -21.121513 -5.630923 27.562105 5.195882 3.966310 3.318686 0.000000 0.000000 0.000000 7.952435 -51.011107 9.044507 13.496101 2.744779 -3.532371 3.091593 6.710510 -4.192312 -0.272909 -3.246440 1.160876 0.000000 0.000000 0.000000 -3.937026 6.168247 -3.044297 -0.524882 11.940884 -0.641580 -1.264726 24.558758 -4.068942 0.000000 0.000000 0.000000 -4.821509 5.737491 -2.983012 -0.360401 -8.538080 -1.300550 -0.055699 -1.382272 0.119290 -11.334050 6.666111 -43.955221 -23.559245 -33.907805 -20.669329 0.000000 0.000000 0.000000 -4.720228 5.690027 -2.512165 -1.795372 20.167423 0.813925 -6.899594 -0.892361 2.883186 10.252044 -31.834590 62.658154 -21.457511 44.475747 20.807278 0.000000 0.000000 0.000000 
